<svg xmlns="http://www.w3.org/2000/svg" viewBox="0 0 64 64" role="img" aria-label="Lotus Abroad">
  <path
    fill="#111111"
    d="M32 7c-7.2 8.2-10.7 16.6-10.7 25.2 0 9.6 4.2 17.6 10.7 24 6.5-6.4 10.7-14.4 10.7-24C42.7 23.6 39.2 15.2 32 7Zm-14.6 16.3c-4.8 6.7-6.6 13.8-5.2 21.1 1.6 8.2 6.7 14.6 14.3 19.1-4.1-7.2-5.7-14.2-4.9-21.1.5-4.4 2-8.7 4.4-12.9-3.2-.8-6.3-2.4-8.6-6.2Zm29.2 0c-2.3 3.8-5.4 5.4-8.6 6.2 2.4 4.2 3.9 8.5 4.4 12.9.8 6.9-.8 13.9-4.9 21.1 7.6-4.5 12.7-10.9 14.3-19.1 1.4-7.3-.4-14.4-5.2-21.1ZM10 41.7c8.4 5.2 15.7 7.8 22 7.8s13.6-2.6 22-7.8c-6.2 1.3-12.5 1.7-18.9 1.1-1-.1-2.1-.1-3.1-.1s-2.1 0-3.1.1c-6.4.6-12.7.2-18.9-1.1Z"
  />
</svg>

