<?xml version="1.0" encoding="UTF-8" standalone="no"?><!DOCTYPE svg PUBLIC "-//W3C//DTD SVG 1.1//EN" "http://www.w3.org/Graphics/SVG/1.1/DTD/svg11.dtd"><svg width="100%" height="100%" viewBox="0 0 1133 451" version="1.1" xmlns="http://www.w3.org/2000/svg" xmlns:xlink="http://www.w3.org/1999/xlink" xml:space="preserve" xmlns:serif="http://www.serif.com/" style="fill-rule:evenodd;clip-rule:evenodd;stroke-linejoin:round;stroke-miterlimit:1.41421;"><rect id="ArtBoard1" x="0" y="0" width="1133" height="450.792" style="fill:none;"/><path d="M60.773,235.491l0,-167.195l-53.428,0l0,-21.371l129.168,0l0,21.371l-53.113,0l0,167.195l-22.627,0Z" style="fill:#e74330;fill-rule:nonzero;"/><path d="M200.903,39.382l85.969,196.109l-24.395,0l-24.528,-57.827l-73.837,0l-24.523,57.827l-24.312,0l85.626,-196.109m0,49.631l-30.077,69.48l60.154,0l-30.077,-69.48Z" style="fill:#e74330;fill-rule:nonzero;"/><path d="M304.723,235.491l0,-196.109l137.967,150.77l0,-143.227l21.371,0l0,195.795l-137.968,-148.909l0,141.68l-21.37,0Z" style="fill:#e74330;fill-rule:nonzero;"/><path d="M507.972,235.491l0,-188.566l36.146,0c26.812,0 45.698,1.355 56.659,4.057c10.959,2.705 20.566,7.233 28.816,13.587c10.827,8.333 19.033,18.984 24.621,31.948c5.588,12.964 8.383,27.907 8.383,44.819c0,16.833 -2.775,31.708 -8.32,44.632c-5.544,12.925 -13.774,23.551 -24.684,31.88c-8.255,6.354 -17.644,10.887 -28.173,13.587c-10.527,2.706 -26.924,4.056 -49.184,4.056l-8.118,0l-36.146,0m22.627,-21.056l14.296,0c23.176,0 39.23,-1.007 48.157,-3.025c8.928,-2.018 16.358,-5.476 22.279,-10.376c7.724,-6.443 13.603,-14.751 17.64,-24.931c4.036,-10.18 6.054,-21.843 6.054,-34.988c0,-13.229 -1.998,-24.848 -5.991,-34.855c-3.992,-10.008 -9.895,-18.272 -17.703,-24.804c-5.921,-4.979 -13.454,-8.525 -22.597,-10.631c-9.143,-2.101 -25.093,-3.158 -47.839,-3.158l-14.296,0l0,146.768Z" style="fill:#e74330;fill-rule:nonzero;"/><path d="M698.073,235.491l0,-188.566l99.626,0l0,20.429l-77.312,0l0,54.369l77.312,0l0,20.742l-77.312,0l0,72.284l77.312,0l0,20.742l-99.626,0Z" style="fill:#e74330;fill-rule:nonzero;"/><path d="M1068.58,217.285l-63.21,0l-35.122,-171.032l-16.814,0.005l-32.676,142.756l-32.967,-142.608l-17.141,0l-44.169,189.238l-0.019,167.214c0,0 127.978,0.036 129.325,-0.156c69.299,-6.915 62.439,-86.588 62.439,-86.588l-24.372,0c-0.148,42.571 -20.309,63.876 -57.517,63.876c-24.484,0 -46.132,-18.918 -47.489,-44.229c-3.301,-61.442 73.697,-53.742 71.025,-13.357c0,38.655 -44.666,27.214 -44.312,8.956c0.332,-17.181 18.026,-16.418 20.525,-12.601c1.902,2.905 1.525,5.481 -0.569,6.787c-3.147,1.963 -8.957,-1.414 -8.957,-1.414l-3.772,8.013c0,0 4.483,6.065 9.429,6.758c16.814,2.357 18.343,-14.226 16.92,-22.053c-4.31,-23.696 -51.962,-22.104 -49.657,19.592c2.466,37.618 80.664,48.66 80.664,-14.825c0.246,-26.398 -15.84,-50.815 -50.912,-51.383c-64.104,-1.04 -65.055,65.369 -65.055,65.369l-16.657,0c0,-88.312 82.589,-84.226 82.589,-84.226l0,-15.837l31.07,-141.459l32.256,141.582l66.521,0l36.471,27.866l0.276,138.993l16.815,0.002l0.353,-147.377l-45.291,-37.862m-224.203,18.097l35.199,-138.91l32.056,138.91l-67.255,0Z" style="fill:#e74330;fill-rule:nonzero;"/><path d="M508.645,402.534l0,-108.74l17.757,0l0,45.011l38.995,-45.011l21.575,0l-43,48.354l48.114,60.386l-22.76,0l-42.924,-55.558l0,55.558l-17.757,0Z" style="fill:#e74330;fill-rule:nonzero;"/><path d="M596.528,367.345c0,-5.149 0.977,-10.013 2.932,-14.592c1.954,-4.579 4.761,-8.649 8.422,-12.215c3.608,-3.516 7.766,-6.214 12.464,-8.095c4.7,-1.88 9.623,-2.821 14.77,-2.821c5.291,0 10.275,0.941 14.95,2.821c4.674,1.881 8.866,4.653 12.579,8.315c3.709,3.615 6.528,7.701 8.458,12.255c1.929,4.555 2.894,9.333 2.894,14.332c0,5.198 -0.952,10.074 -2.857,14.629c-1.906,4.554 -4.688,8.589 -8.349,12.102c-3.859,3.711 -8.136,6.524 -12.835,8.429c-4.7,1.902 -9.647,2.858 -14.84,2.858c-5.098,0 -9.996,-0.956 -14.696,-2.858c-4.699,-1.905 -8.881,-4.665 -12.538,-8.28c-3.713,-3.662 -6.532,-7.771 -8.461,-12.325c-1.931,-4.555 -2.893,-9.406 -2.893,-14.555m16.342,-58.105c0,-2.378 0.886,-4.449 2.664,-6.207c1.776,-1.758 3.873,-2.639 6.288,-2.639c2.417,0 4.489,0.857 6.214,2.565c1.727,1.71 2.591,3.804 2.591,6.281c0,2.628 -0.828,4.796 -2.479,6.505c-1.653,1.708 -3.762,2.563 -6.326,2.563c-2.516,0 -4.638,-0.867 -6.363,-2.601c-1.727,-1.733 -2.589,-3.888 -2.589,-6.467m44.156,58.253c0,-6.542 -2.107,-12.078 -6.314,-16.613c-4.209,-4.533 -9.361,-6.802 -15.45,-6.802c-6.042,0 -11.181,2.269 -15.414,6.802c-4.232,4.535 -6.349,10.071 -6.349,16.613c0,6.54 2.117,12.079 6.349,16.612c4.233,4.535 9.372,6.801 15.414,6.801c6.04,0 11.181,-2.266 15.412,-6.801c4.233,-4.533 6.352,-10.072 6.352,-16.612m-17.127,-58.253c0,-2.378 0.886,-4.449 2.663,-6.207c1.776,-1.758 3.872,-2.639 6.289,-2.639c2.415,0 4.487,0.857 6.213,2.565c1.726,1.71 2.591,3.804 2.591,6.281c0,2.628 -0.827,4.796 -2.48,6.505c-1.653,1.708 -3.761,2.563 -6.324,2.563c-2.517,0 -4.639,-0.867 -6.365,-2.601c-1.726,-1.733 -2.587,-3.888 -2.587,-6.467Z" style="fill:#e74330;fill-rule:nonzero;"/><rect x="691.922" y="287.352" width="16.187" height="115.182" style="fill:#e74330;"/><path d="M731.023,402.534l0,-70.398l15.215,0l0,11.454c3.209,-4.855 6.988,-8.395 11.333,-10.624c4.346,-2.23 9.631,-3.344 15.852,-3.344c5.235,0 9.691,0.83 13.371,2.49c3.678,1.66 6.556,4.125 8.632,7.394c1.231,1.933 2.121,4.186 2.666,6.763c0.543,2.578 0.815,7.086 0.815,13.526l0,42.739l-16.343,0l0,-36.198c0,-9.267 -1.119,-15.422 -3.358,-18.472c-2.24,-3.046 -6.215,-4.572 -11.92,-4.572c-3.744,0 -7.077,0.695 -10.004,2.082c-2.926,1.389 -5.227,3.345 -6.9,5.871c-1.183,1.688 -2.008,3.856 -2.474,6.507c-0.467,2.652 -0.699,6.875 -0.699,12.672l0,32.11l-16.186,0Z" style="fill:#e74330;fill-rule:nonzero;"/></svg>